<?xml version="1.0" standalone="no"?><!DOCTYPE svg PUBLIC "-//W3C//DTD SVG 1.1//EN" "http://www.w3.org/Graphics/SVG/1.1/DTD/svg11.dtd"><svg t="1727359504828" class="icon" viewBox="0 0 1024 1024" version="1.1" xmlns="http://www.w3.org/2000/svg" p-id="3545" xmlns:xlink="http://www.w3.org/1999/xlink" width="200" height="200"><path d="M105.984 719.018667c-66.645333-115.157333-38.826667-285.098667 33.28-394.752a31.018667 31.018667 0 0 1 44.458667-10.965334c6.826667 6.229333 12.501333 13.653333 16.64 21.930667 0 5.504 5.546667 11.008 5.546666 16.469333 6.869333-22.869333 16.213333-44.928 27.776-65.792 38.869333-65.792 99.968-126.122667 172.16-148.053333a35.157333 35.157333 0 0 1 44.416 16.469333c2.773333 8.917333 2.773333 18.432 0 27.306667-10.624 12.8-18.218667 27.776-22.186666 43.904a643.072 643.072 0 0 1 177.749333-109.525333c133.248-49.322667 288.768-32.896 344.32 115.114666a32.64 32.64 0 0 1-22.229333 43.904h-5.546667c-116.608 27.306667-155.477333 104.149333-194.346667 175.445334-55.552 98.688-105.514667 186.410667-294.357333 186.410666 16.085333 7.168 32.853333 12.672 50.048 16.426667a33.877333 33.877333 0 0 1 27.776 43.904c-4.181333 8.277333-9.813333 15.701333-16.64 21.930667-83.370667 49.28-238.933333 82.176-333.312 43.818666a173.738667 173.738667 0 0 0-22.186667 126.08h94.378667a21.888 21.888 0 1 1 0 43.861334H111.488a41.728 41.728 0 0 1-38.698667-27.306667 243.925333 243.925333 0 0 1 33.194667-186.581333z m249.898667 208.341333H933.546667a21.802667 21.802667 0 0 0 21.930666-21.930667 21.888 21.888 0 0 0-21.930666-21.930666H355.925333a21.888 21.888 0 1 0 0 43.861333z" fill="#95030C" p-id="3546"></path></svg>